<svg width="20" height="20" viewBox="0 0 20 20" fill="none" xmlns="http://www.w3.org/2000/svg">
<path d="M7.49935 1.53503L12.561 4.48837L18.3327 2.08337V9.1667H16.666V4.58337L13.3327 5.97253V9.1667H11.666V5.89503L8.33268 3.95087V14.105L9.88935 15.0134L9.04935 16.4525L7.43768 15.5117L1.66602 17.9167V4.93837L7.49935 1.53503ZM6.66602 14.0275V3.95087L3.33268 5.89503V15.4167L6.66602 14.0275ZM14.9993 11.6667C14.3916 11.6667 13.8087 11.9081 13.3789 12.3379C12.9491 12.7677 12.7077 13.3506 12.7077 13.9584C12.7077 15.0017 13.3202 16.0034 14.0535 16.81C14.3927 17.1834 14.7343 17.4884 14.9993 17.7059C15.2643 17.4892 15.606 17.1834 15.9452 16.81C16.6785 16.0034 17.291 15.0017 17.291 13.9584C17.291 13.3506 17.0496 12.7677 16.6198 12.3379C16.19 11.9081 15.6071 11.6667 14.9993 11.6667ZM14.9993 19.7509L14.5368 19.4434L14.5352 19.4425L14.5318 19.44L14.5218 19.4334L14.4885 19.41L14.3743 19.3292C13.8125 18.9145 13.292 18.4465 12.8202 17.9317C11.991 17.02 11.041 15.6259 11.041 13.9584C11.041 13.4386 11.1434 12.9238 11.3423 12.4436C11.5413 11.9633 11.8328 11.527 12.2004 11.1594C12.5679 10.7918 13.0043 10.5003 13.4846 10.3013C13.9648 10.1024 14.4795 10 14.9993 10C15.5192 10 16.0339 10.1024 16.5141 10.3013C16.9944 10.5003 17.4307 10.7918 17.7983 11.1594C18.1659 11.527 18.4574 11.9633 18.6564 12.4436C18.8553 12.9238 18.9577 13.4386 18.9577 13.9584C18.9577 15.6259 18.0077 17.02 17.1785 17.9317C16.6747 18.4805 16.1156 18.9759 15.5102 19.41L15.4768 19.4334L15.4668 19.44L15.4635 19.4425H15.4618L14.9993 19.7509ZM13.9577 13.3334H16.041V15H13.9577V13.3334Z" fill="#535353"/>
</svg>
