<svg width="20" height="20" viewBox="0 0 20 20" fill="none" xmlns="http://www.w3.org/2000/svg">
<path d="M3.33268 4.99996H16.666V6.66663H3.33268V4.99996ZM4.99935 1.66663H14.9993V3.33329H4.99935V1.66663ZM1.66602 8.33329V9.99996H3.33268V16.6666C3.33334 17.1084 3.50915 17.532 3.82157 17.8444C4.13399 18.1568 4.55752 18.3326 4.99935 18.3333H14.9993C15.4415 18.3329 15.8656 18.1572 16.1786 17.8449C16.4915 17.5325 16.668 17.1088 16.6693 16.6666L16.666 9.99996H18.3327V8.33329H1.66602ZM14.9993 16.6666H4.99935V9.99996H14.9993V16.6666Z" fill="#535353"/>
<path d="M6.66602 14.1666H9.99935V15.8333H6.66602V14.1666Z" fill="#535353"/>
</svg>
