<svg width="18" height="19" viewBox="0 0 18 19" fill="none" xmlns="http://www.w3.org/2000/svg">
<path d="M6.49935 0.535034L11.561 3.48837L17.3327 1.08337V8.1667H15.666V3.58337L12.3327 4.97253V8.1667H10.666V4.89503L7.33268 2.95087V13.105L8.88935 14.0134L8.04935 15.4525L6.43768 14.5117L0.666016 16.9167V3.93837L6.49935 0.535034ZM5.66602 13.0275V2.95087L2.33268 4.89503V14.4167L5.66602 13.0275ZM13.9993 10.6667C13.3916 10.6667 12.8087 10.9081 12.3789 11.3379C11.9491 11.7677 11.7077 12.3506 11.7077 12.9584C11.7077 14.0017 12.3202 15.0034 13.0535 15.81C13.3927 16.1834 13.7343 16.4884 13.9993 16.7059C14.2643 16.4892 14.606 16.1834 14.9452 15.81C15.6785 15.0034 16.291 14.0017 16.291 12.9584C16.291 12.3506 16.0496 11.7677 15.6198 11.3379C15.19 10.9081 14.6071 10.6667 13.9993 10.6667ZM13.9993 18.7509L13.5368 18.4434L13.5352 18.4425L13.5318 18.44L13.5218 18.4334L13.4885 18.41L13.3743 18.3292C12.8125 17.9145 12.292 17.4465 11.8202 16.9317C10.991 16.02 10.041 14.6259 10.041 12.9584C10.041 12.4386 10.1434 11.9238 10.3423 11.4436C10.5413 10.9633 10.8328 10.527 11.2004 10.1594C11.5679 9.79184 12.0043 9.50027 12.4846 9.30134C12.9648 9.10242 13.4795 9.00003 13.9993 9.00003C14.5192 9.00003 15.0339 9.10242 15.5141 9.30134C15.9944 9.50027 16.4307 9.79184 16.7983 10.1594C17.1659 10.527 17.4574 10.9633 17.6564 11.4436C17.8553 11.9238 17.9577 12.4386 17.9577 12.9584C17.9577 14.6259 17.0077 16.02 16.1785 16.9317C15.6747 17.4805 15.1156 17.9759 14.5102 18.41L14.4768 18.4334L14.4668 18.44L14.4635 18.4425H14.4618L13.9993 18.7509ZM12.9577 12.3334H15.041V14H12.9577V12.3334Z" fill="white"/>
</svg>
